<?xml version="1.0" encoding="UTF-8" standalone="no"?>
<!DOCTYPE svg PUBLIC "-//W3C//DTD SVG 1.1//EN" "http://www.w3.org/Graphics/SVG/1.1/DTD/svg11.dtd">
<svg xmlns="http://www.w3.org/2000/svg" version="1.1" viewBox="0.00 0.00 313.00 315.00">
<path fill="#ffffff" d="
  M 91.50 26.47
  L 87.62 17.07
  Q 87.37 16.46 87.96 16.20
  L 98.66 11.42
  Q 99.15 11.20 99.37 11.70
  L 103.68 21.47
  A 0.50 0.50 0.0 0 0 104.28 21.74
  L 118.86 16.99
  Q 119.29 16.85 119.21 16.41
  L 117.37 6.21
  Q 117.29 5.73 117.76 5.62
  L 129.26 3.12
  Q 129.76 3.01 129.87 3.52
  L 132.15 13.84
  Q 132.25 14.29 132.70 14.24
  L 148.53 12.56
  A 0.37 0.36 -3.6 0 0 148.85 12.20
  L 148.87 1.67
  Q 148.87 1.21 149.33 1.21
  L 161.48 1.20
  Q 162.00 1.20 162.00 1.73
  L 162.00 12.13
  Q 162.00 12.52 162.40 12.57
  L 177.78 14.19
  A 0.47 0.46 -81.4 0 0 178.29 13.81
  L 180.33 3.41
  Q 180.44 2.89 180.95 3.00
  L 192.77 5.56
  Q 193.37 5.69 193.24 6.28
  L 191.14 16.24
  Q 191.03 16.74 191.51 16.89
  L 203.30 20.67
  Q 203.63 20.78 203.77 20.46
  L 207.95 10.68
  Q 208.20 10.10 208.79 10.33
  L 219.51 14.52
  Q 220.11 14.75 219.88 15.36
  L 216.16 25.13
  Q 216.01 25.53 216.39 25.73
  L 229.93 32.88
  Q 230.47 33.17 230.80 32.65
  L 236.42 23.99
  Q 236.72 23.52 237.19 23.83
  L 247.24 30.38
  Q 247.64 30.64 247.38 31.05
  L 241.65 39.79
  Q 241.30 40.33 241.80 40.73
  L 250.50 47.65
  Q 250.97 48.02 250.56 48.56
  L 236.95 66.19
  Q 236.36 66.95 235.52 66.47
  C 234.15 65.69 232.87 64.17 231.73 63.26
  C 183.96 25.55 117.15 28.13 72.44 69.01
  Q 71.97 69.43 71.60 68.92
  L 58.38 50.83
  Q 57.64 49.82 58.61 49.04
  L 68.23 41.31
  Q 69.26 40.48 68.52 39.40
  L 63.14 31.55
  A 0.71 0.70 56.6 0 1 63.34 30.55
  L 73.08 24.20
  Q 73.64 23.83 74.02 24.38
  L 79.80 32.91
  A 0.60 0.59 -31.0 0 0 80.58 33.10
  L 91.23 27.24
  Q 91.71 26.97 91.50 26.47
  Z"
/>
<path fill="#ffffff" d="
  M 143.13 163.12
  Q 144.61 160.65 149.22 152.97
  C 161.88 131.84 183.08 115.41 204.28 103.59
  Q 220.72 94.42 237.30 85.48
  Q 254.49 76.21 270.98 65.72
  C 283.87 57.52 296.64 48.72 306.72 37.08
  C 307.90 35.72 309.27 33.27 310.89 31.60
  Q 311.33 31.14 311.43 31.77
  C 314.14 49.02 312.03 67.80 303.60 83.09
  C 295.03 98.64 281.17 108.86 264.71 115.22
  C 246.72 122.18 229.00 128.81 210.61 137.23
  Q 210.43 137.31 210.50 137.50
  L 210.50 137.51
  Q 210.57 137.70 210.76 137.64
  Q 218.02 135.70 225.21 133.46
  C 229.90 131.99 235.41 130.65 240.46 128.96
  C 247.96 126.45 255.48 123.96 262.99 121.49
  Q 279.93 115.93 295.36 107.02
  C 298.76 105.07 301.50 102.59 304.19 99.89
  Q 304.55 99.53 304.53 100.04
  C 303.87 119.53 295.07 138.43 277.43 148.35
  C 265.00 155.33 252.74 155.34 238.75 158.17
  Q 226.94 160.57 215.00 162.52
  A 0.22 0.22 0.0 0 0 214.81 162.75
  L 214.84 163.05
  Q 214.86 163.25 215.06 163.24
  C 220.59 163.08 226.39 162.13 231.48 161.82
  Q 251.76 160.61 271.49 155.69
  Q 274.48 154.95 284.22 150.47
  Q 284.71 150.24 284.59 150.78
  Q 283.49 155.38 281.32 159.57
  Q 271.65 178.16 252.67 183.84
  Q 246.97 185.54 235.64 186.06
  C 221.87 186.70 208.20 186.97 194.59 189.02
  Q 193.55 189.18 194.42 189.78
  Q 203.38 195.92 206.89 206.24
  Q 207.78 208.86 206.43 206.45
  C 197.31 190.15 173.00 189.14 161.66 203.75
  C 148.89 220.19 158.23 244.50 178.99 247.49
  Q 179.80 247.61 179.05 247.91
  C 175.82 249.24 167.63 246.83 164.25 245.73
  C 156.66 243.27 150.87 235.08 145.64 229.36
  C 133.61 216.24 123.07 197.94 123.62 179.56
  Q 123.63 179.36 123.43 179.35
  L 123.13 179.34
  Q 123.09 179.34 123.08 179.38
  Q 122.62 188.53 124.07 194.99
  C 128.01 212.64 138.94 227.70 152.10 241.91
  C 153.91 243.86 156.42 247.14 157.49 250.20
  C 159.70 256.54 162.41 262.71 164.33 269.13
  Q 164.56 269.87 163.98 269.35
  C 156.15 262.20 145.99 251.42 139.93 244.33
  C 118.90 219.73 107.20 186.33 118.04 154.61
  C 119.35 150.79 121.64 146.59 123.34 142.50
  C 126.74 134.32 114.76 128.38 109.09 126.14
  A 0.51 0.51 0.0 0 0 108.40 126.73
  C 110.01 133.91 109.91 139.72 104.00 144.72
  C 98.70 149.21 92.76 153.14 87.86 158.03
  Q 84.63 161.27 82.24 165.80
  Q 78.88 172.21 76.27 178.98
  C 73.85 185.28 63.01 177.67 59.68 175.83
  A 1.59 1.54 -89.2 0 1 59.02 175.13
  C 56.80 170.47 58.06 162.86 59.17 157.99
  C 62.70 142.53 65.75 125.19 70.59 109.16
  Q 70.75 108.62 70.21 108.45
  L 60.01 105.26
  Q 59.55 105.11 59.93 104.82
  C 86.00 84.42 117.06 77.67 149.00 86.68
  Q 149.06 86.69 149.08 86.63
  L 149.15 86.39
  A 0.31 0.30 18.7 0 0 148.95 86.00
  C 129.37 79.33 108.98 77.58 89.37 82.39
  A 2.23 2.23 0.0 0 1 87.10 81.62
  L 79.19 71.81
  Q 78.73 71.25 79.45 71.10
  C 120.54 62.91 161.31 76.96 189.67 107.81
  Q 190.11 108.28 189.57 108.64
  C 179.22 115.48 170.08 121.96 161.03 131.77
  Q 150.14 143.57 144.20 158.51
  Q 143.56 160.14 142.88 163.02
  Q 142.69 163.84 143.13 163.12
  Z"
/>
<path fill="#ffffff" d="
  M 43.52 71.71
  L 56.14 82.93
  Q 56.30 83.07 56.16 83.23
  L 54.07 85.58
  Q 53.87 85.81 53.64 85.60
  L 33.96 68.08
  Q 33.79 67.93 33.95 67.77
  L 37.80 63.98
  Q 37.97 63.81 38.17 63.94
  L 52.21 72.82
  Q 54.14 74.04 52.68 72.29
  L 42.17 59.71
  Q 41.78 59.24 42.19 58.79
  L 45.28 55.34
  Q 45.69 54.89 46.14 55.30
  L 65.31 72.42
  Q 65.52 72.60 65.34 72.82
  L 63.25 75.44
  Q 63.03 75.72 62.77 75.48
  L 51.21 65.03
  Q 49.55 63.53 50.63 65.56
  Q 50.78 65.85 51.73 66.53
  C 53.24 67.62 54.63 70.41 56.12 71.92
  C 57.82 73.63 58.93 75.62 60.67 77.31
  Q 61.06 77.70 60.70 78.11
  L 58.74 80.36
  Q 58.38 80.77 57.91 80.48
  L 43.95 71.55
  Q 43.84 71.48 43.74 71.54
  L 43.53 71.67
  Q 43.50 71.69 43.52 71.71
  Z"
/>
<path fill="#ffffff" d="
  M 46.56 88.28
  L 43.86 92.15
  A 0.38 0.38 0.0 0 0 43.92 92.65
  L 47.20 95.48
  A 0.38 0.38 0.0 0 1 47.26 95.99
  L 45.48 98.50
  A 0.38 0.38 0.0 0 1 44.91 98.56
  L 25.62 80.70
  A 0.38 0.38 0.0 0 1 25.57 80.21
  L 28.69 75.67
  A 0.38 0.38 0.0 0 1 29.16 75.54
  L 53.00 86.52
  A 0.38 0.38 0.0 0 1 53.16 87.07
  L 51.24 90.04
  A 0.38 0.38 0.0 0 1 50.74 90.17
  L 47.05 88.16
  A 0.38 0.38 0.0 0 0 46.56 88.28
  Z
  M 32.55 81.39
  Q 31.72 80.99 32.29 81.71
  Q 34.29 84.24 37.16 86.39
  C 38.46 87.36 39.43 88.61 40.72 89.69
  A 0.44 0.44 0.0 0 0 41.37 89.59
  L 43.03 87.03
  Q 43.26 86.68 42.88 86.49
  L 32.55 81.39
  Z"
/>
<path fill="#ffffff" d="
  M 38.28 103.92
  L 41.44 97.98
  A 0.34 0.34 0.0 0 1 41.92 97.85
  L 44.56 99.55
  A 0.34 0.34 0.0 0 1 44.68 99.99
  L 39.81 109.43
  A 0.34 0.34 0.0 0 1 39.36 109.58
  L 16.25 97.81
  A 0.34 0.34 0.0 0 1 16.10 97.36
  L 20.92 87.55
  A 0.34 0.34 0.0 0 1 21.39 87.40
  L 24.16 88.99
  A 0.34 0.34 0.0 0 1 24.30 89.44
  L 21.43 95.36
  A 0.34 0.34 0.0 0 0 21.58 95.81
  L 27.53 98.76
  A 0.34 0.34 0.0 0 0 27.98 98.61
  L 30.26 94.14
  A 0.34 0.34 0.0 0 1 30.73 93.99
  L 33.54 95.49
  A 0.34 0.34 0.0 0 1 33.68 95.95
  L 31.40 100.43
  A 0.34 0.34 0.0 0 0 31.55 100.88
  L 37.82 104.06
  A 0.34 0.34 0.0 0 0 38.28 103.92
  Z"
/>
<path fill="#ffffff" d="
  M 16.71 106.90
  L 37.55 114.85
  A 0.33 0.33 0.0 0 1 37.73 115.29
  L 36.31 118.51
  A 0.33 0.33 0.0 0 1 35.89 118.69
  L 14.80 110.67
  A 0.33 0.33 0.0 0 0 14.36 110.89
  L 13.40 114.46
  A 0.33 0.33 0.0 0 1 12.96 114.68
  L 9.95 113.54
  A 0.33 0.33 0.0 0 1 9.76 113.11
  L 14.22 101.61
  A 0.33 0.33 0.0 0 1 14.63 101.41
  L 17.66 102.38
  A 0.33 0.33 0.0 0 1 17.87 102.81
  L 16.51 106.47
  A 0.33 0.33 0.0 0 0 16.71 106.90
  Z"
/>
<path fill="#ffffff" d="
  M 9.59 128.69
  A 1.91 1.90 47.3 0 0 9.46 132.01
  C 15.54 135.74 20.17 124.03 28.62 128.11
  C 32.68 130.07 33.12 134.62 30.57 137.91
  Q 27.96 141.27 22.67 139.45
  Q 22.50 139.40 22.54 139.22
  L 23.23 136.00
  Q 23.28 135.78 23.49 135.81
  L 26.43 136.15
  A 1.17 1.15 24.6 0 0 27.42 135.79
  Q 28.53 134.61 28.18 133.01
  Q 28.08 132.57 27.69 132.32
  C 22.84 129.30 19.44 135.27 15.24 136.53
  C 9.35 138.29 1.58 133.97 6.02 127.07
  Q 8.27 123.56 13.45 124.82
  A 0.34 0.33 -78.4 0 1 13.70 125.21
  L 13.07 128.53
  A 0.24 0.24 0.0 0 1 12.73 128.70
  Q 11.13 127.90 9.59 128.69
  Z"
/>
<path fill="#ffffff" d="
  M 25.85 148.25
  L 25.92 147.94
  Q 26.22 146.54 24.86 146.07
  Q 22.69 145.31 20.30 145.49
  Q 19.80 145.53 19.64 145.06
  Q 19.59 144.90 19.62 144.67
  L 19.89 142.16
  A 0.86 0.85 3.0 0 1 20.74 141.40
  C 23.54 141.38 27.07 141.56 28.71 144.17
  C 31.58 148.73 28.50 154.66 22.73 154.15
  Q 13.54 153.33 7.07 152.43
  C 2.05 151.73 1.67 145.86 3.63 142.37
  C 4.93 140.05 9.98 140.17 12.13 140.66
  A 0.29 0.28 9.5 0 1 12.35 140.96
  L 12.10 144.17
  A 0.25 0.25 0.0 0 1 11.84 144.40
  L 7.97 144.22
  A 1.84 1.84 0.0 0 0 6.33 147.04
  Q 7.27 148.53 9.37 148.71
  Q 16.16 149.29 23.44 150.01
  A 2.25 2.24 8.8 0 0 25.85 148.25
  Z"
/>
<rect fill="#ffffff" x="-13.29" y="-2.16" transform="translate(15.54,158.80) rotate(0.5)" width="26.58" height="4.32" rx="0.30"/>
<path fill="#ffffff" d="
  M 6.55 168.24
  L 28.54 166.70
  A 0.38 0.38 0.0 0 1 28.95 167.05
  L 29.19 170.63
  A 0.38 0.38 0.0 0 1 28.84 171.03
  L 6.97 172.37
  A 0.38 0.38 0.0 0 0 6.62 172.76
  L 6.80 176.53
  A 0.38 0.38 0.0 0 1 6.44 176.92
  L 3.50 177.03
  A 0.38 0.38 0.0 0 1 3.10 176.68
  L 2.20 164.57
  A 0.38 0.38 0.0 0 1 2.56 164.16
  L 5.56 164.00
  A 0.38 0.38 0.0 0 1 5.96 164.36
  L 6.14 167.88
  A 0.38 0.38 0.0 0 0 6.55 168.24
  Z"
/>
<path fill="#ffffff" d="
  M 31.3073 182.6342
  A 5.98 5.98 0.0 0 1 26.5294 189.6122
  L 11.3725 192.4487
  A 5.98 5.98 0.0 0 1 4.3946 187.6708
  L 4.2327 186.8058
  A 5.98 5.98 0.0 0 1 9.0106 179.8278
  L 24.1675 176.9913
  A 5.98 5.98 0.0 0 1 31.1454 181.7692
  L 31.3073 182.6342
  Z
  M 27.5717 182.8558
  A 2.11 2.11 0.0 0 0 25.1244 181.1485
  L 9.9040 183.8597
  A 2.11 2.11 0.0 0 0 8.1967 186.3070
  L 8.2283 186.4842
  A 2.11 2.11 0.0 0 0 10.6756 188.1915
  L 25.8960 185.4803
  A 2.11 2.11 0.0 0 0 27.6033 183.0330
  L 27.5717 182.8558
  Z"
/>
<path fill="#ffffff" d="
  M 181.86 315.00
  L 180.95 315.00
  L 178.63 304.22
  Q 178.53 303.77 178.08 303.82
  L 163.88 305.38
  Q 163.31 305.45 163.30 304.87
  L 163.08 281.96
  Q 163.07 281.35 163.68 281.30
  Q 217.77 276.50 251.16 235.41
  Q 265.08 218.28 272.37 195.54
  C 272.75 194.35 273.28 192.05 273.84 190.33
  Q 274.04 189.73 274.65 189.89
  L 296.67 195.76
  Q 297.28 195.92 297.09 196.51
  L 293.78 206.85
  A 0.55 0.54 -70.0 0 0 294.09 207.53
  L 303.82 211.60
  Q 304.42 211.85 304.18 212.44
  L 299.85 223.19
  Q 299.64 223.71 299.11 223.51
  L 289.45 219.90
  Q 288.89 219.69 288.61 220.22
  L 282.04 232.76
  Q 281.34 234.09 282.59 234.91
  L 290.35 240.03
  Q 290.91 240.40 290.54 240.97
  L 284.01 250.88
  Q 283.75 251.27 283.37 251.01
  L 274.62 245.28
  Q 274.16 244.98 273.82 245.40
  L 263.98 257.47
  Q 263.54 258.01 264.03 258.50
  L 271.13 265.60
  Q 271.63 266.10 271.13 266.61
  L 262.85 274.91
  Q 262.45 275.31 262.05 274.91
  L 254.61 267.48
  Q 254.33 267.19 254.02 267.45
  L 242.05 277.27
  Q 241.68 277.58 241.95 277.98
  L 247.69 286.72
  Q 247.99 287.17 247.53 287.48
  L 237.61 293.99
  Q 237.11 294.32 236.77 293.82
  L 231.15 285.30
  Q 230.75 284.69 230.11 285.04
  L 219.38 290.93
  Q 218.93 291.18 219.14 291.65
  L 223.42 301.13
  Q 223.60 301.52 223.21 301.70
  L 212.09 306.68
  A 0.62 0.61 -23.3 0 1 211.27 306.36
  L 207.34 296.86
  A 0.85 0.84 -20.5 0 0 206.28 296.38
  L 191.97 301.12
  Q 191.50 301.28 191.60 301.77
  L 193.59 311.66
  Q 193.72 312.33 193.05 312.48
  L 181.86 315.00
  Z"
/>
<path fill="#ffffff" d="
  M 19.85 196.23
  C 21.25 193.09 24.37 192.16 27.48 191.55
  C 33.74 190.33 34.60 196.93 36.07 201.84
  Q 36.24 202.40 35.68 202.57
  L 11.43 210.17
  Q 11.02 210.30 10.82 209.91
  C 8.95 206.21 6.51 199.27 11.11 197.08
  Q 15.08 195.18 19.19 196.53
  Q 19.65 196.68 19.85 196.23
  Z
  M 24.36 201.76
  L 30.70 199.92
  A 0.84 0.84 0.0 0 0 31.27 198.88
  L 30.89 197.54
  A 2.45 2.37 73.8 0 0 27.93 195.85
  L 24.53 196.84
  A 2.45 2.37 73.8 0 0 22.94 199.85
  L 23.32 201.19
  A 0.84 0.84 0.0 0 0 24.36 201.76
  Z
  M 13.78 205.07
  L 19.34 203.24
  A 0.56 0.56 0.0 0 0 19.70 202.54
  L 19.34 201.44
  A 2.39 2.14 71.8 0 0 16.56 199.84
  L 14.00 200.68
  A 2.39 2.14 71.8 0 0 12.71 203.62
  L 13.07 204.72
  A 0.56 0.56 0.0 0 0 13.78 205.07
  Z"
/>
<path fill="#ffffff" d="
  M 39.8887 210.5069
  A 5.73 5.73 0.0 0 1 37.0640 218.1021
  L 22.7527 224.6543
  A 5.73 5.73 0.0 0 1 15.1575 221.8297
  L 14.5913 220.5931
  A 5.73 5.73 0.0 0 1 17.4160 212.9979
  L 31.7273 206.4457
  A 5.73 5.73 0.0 0 1 39.3225 209.2703
  L 39.8887 210.5069
  Z
  M 36.0824 211.2354
  A 1.90 1.90 0.0 0 0 33.5656 210.2944
  L 19.2064 216.8382
  A 1.90 1.90 0.0 0 0 18.2654 219.3551
  L 18.4976 219.8646
  A 1.90 1.90 0.0 0 0 21.0144 220.8056
  L 35.3736 214.2618
  A 1.90 1.90 0.0 0 0 36.3146 211.7449
  L 36.0824 211.2354
  Z"
/>
<path fill="#ffffff" d="
  M 188.31 217.60
  L 197.61 214.44
  A 0.31 0.31 0.0 0 1 197.97 214.91
  L 192.57 223.11
  A 0.31 0.31 0.0 0 0 192.58 223.47
  L 198.46 231.33
  A 0.31 0.31 0.0 0 1 198.13 231.82
  L 188.66 229.21
  A 0.31 0.31 0.0 0 0 188.32 229.33
  L 182.65 237.36
  A 0.31 0.31 0.0 0 1 182.09 237.19
  L 181.64 227.38
  A 0.31 0.31 0.0 0 0 181.42 227.10
  L 172.04 224.19
  A 0.31 0.31 0.0 0 1 172.02 223.60
  L 181.22 220.14
  A 0.31 0.31 0.0 0 0 181.42 219.85
  L 181.28 210.03
  A 0.31 0.31 0.0 0 1 181.84 209.83
  L 187.97 217.50
  A 0.31 0.31 0.0 0 0 188.31 217.60
  Z"
/>
<path fill="#ffffff" d="
  M 33.33 225.53
  Q 33.35 223.04 34.77 222.27
  Q 39.09 219.92 42.69 217.16
  Q 42.91 216.99 43.04 217.24
  L 44.78 220.58
  Q 44.92 220.85 44.67 221.01
  L 37.67 225.51
  Q 36.22 226.45 36.90 228.03
  L 37.14 228.58
  Q 37.80 230.13 39.26 229.28
  L 46.93 224.81
  Q 47.35 224.57 47.59 224.99
  L 49.18 227.70
  A 0.55 0.54 -30.9 0 1 48.99 228.44
  L 26.95 241.69
  A 0.44 0.43 -32.9 0 1 26.37 241.57
  C 24.00 238.14 19.62 232.42 24.24 228.77
  Q 28.55 225.35 32.86 225.93
  Q 33.32 226.00 33.33 225.53
  Z
  M 28.36 235.99
  L 34.00 232.49
  A 0.75 0.75 0.0 0 0 34.24 231.46
  L 33.58 230.38
  A 2.21 2.12 -31.8 0 0 30.58 229.74
  L 27.42 231.70
  A 2.21 2.12 -31.8 0 0 26.66 234.67
  L 27.33 235.75
  A 0.75 0.75 0.0 0 0 28.36 235.99
  Z"
/>
<path fill="#ffffff" d="
  M 45.40 244.11
  C 45.08 239.43 51.31 237.73 53.20 234.51
  Q 53.44 234.10 53.77 234.45
  L 56.02 236.83
  Q 56.43 237.27 55.98 237.67
  L 49.89 243.12
  A 2.28 2.27 -38.7 0 0 49.55 246.13
  L 49.70 246.34
  Q 50.79 247.88 52.22 246.65
  L 58.69 241.06
  A 0.61 0.61 0.0 0 1 59.53 241.10
  L 61.65 243.28
  A 0.53 0.53 0.0 0 1 61.62 244.05
  L 42.06 260.82
  Q 41.72 261.11 41.41 260.79
  C 38.59 257.89 33.90 253.47 36.34 249.78
  C 38.13 247.09 41.47 244.11 44.92 244.56
  Q 45.44 244.63 45.40 244.11
  Z
  M 42.29 255.26
  L 47.75 250.60
  A 0.60 0.60 0.0 0 0 47.82 249.76
  L 46.92 248.70
  A 2.33 2.27 49.5 0 0 43.68 248.40
  L 40.76 250.89
  A 2.33 2.27 49.5 0 0 40.54 254.14
  L 41.45 255.20
  A 0.60 0.60 0.0 0 0 42.29 255.26
  Z"
/>
<path fill="#ffffff" d="
  M 67.31 255.06
  L 70.28 252.24
  A 0.47 0.47 0.0 0 1 70.91 252.23
  L 73.22 254.31
  A 0.47 0.47 0.0 0 1 73.20 255.03
  L 52.53 271.30
  A 0.47 0.47 0.0 0 1 51.92 271.27
  L 48.06 267.60
  A 0.47 0.47 0.0 0 1 47.99 267.00
  L 62.36 245.31
  A 0.47 0.47 0.0 0 1 63.06 245.22
  L 65.47 247.36
  A 0.47 0.47 0.0 0 1 65.55 247.97
  L 63.30 251.38
  A 0.47 0.47 0.0 0 0 63.37 251.98
  L 66.67 255.06
  A 0.47 0.47 0.0 0 0 67.31 255.06
  Z
  M 60.64 255.39
  C 58.35 257.89 56.79 261.43 54.63 263.92
  Q 51.88 267.09 55.22 264.56
  Q 58.98 261.71 63.54 257.92
  Q 64.13 257.43 63.55 256.93
  L 61.66 255.32
  Q 61.12 254.87 60.64 255.39
  Z"
/>
<path fill="#ffffff" d="
  M 62.68 274.43
  L 76.05 256.50
  A 0.34 0.34 0.0 0 1 76.53 256.44
  L 79.28 258.65
  A 0.34 0.34 0.0 0 1 79.34 259.12
  L 66.12 276.85
  A 0.34 0.34 0.0 0 0 66.17 277.32
  L 69.08 279.68
  A 0.34 0.34 0.0 0 1 69.15 280.14
  L 67.34 282.69
  A 0.34 0.34 0.0 0 1 66.86 282.76
  L 57.01 275.40
  A 0.34 0.34 0.0 0 1 56.93 274.93
  L 58.73 272.31
  A 0.34 0.34 0.0 0 1 59.21 272.24
  L 62.20 274.50
  A 0.34 0.34 0.0 0 0 62.68 274.43
  Z"
/>
<path fill="#ffffff" d="
  M 77.03 285.18
  A 1.41 1.40 45.9 0 0 78.73 285.21
  C 82.97 282.14 79.32 277.26 78.89 273.21
  C 78.14 266.16 85.23 260.00 91.38 266.88
  C 93.38 269.12 91.98 272.74 90.18 275.14
  Q 90.03 275.34 89.82 275.20
  L 86.84 273.14
  Q 86.58 272.96 86.82 272.75
  Q 89.72 270.20 86.99 268.03
  A 1.78 1.78 0.0 0 0 84.35 268.51
  C 81.69 272.98 84.82 276.31 85.01 280.68
  C 85.18 284.59 82.31 290.23 77.53 289.23
  C 72.21 288.11 70.37 283.47 73.53 279.05
  Q 73.71 278.81 73.96 278.97
  L 76.94 280.78
  Q 77.18 280.93 76.97 281.12
  Q 74.63 283.29 77.03 285.18
  Z"
/>
<path fill="#ffffff" d="
  M 94.26 282.20
  Q 94.43 280.92 93.91 282.10
  L 88.29 294.75
  Q 88.16 295.04 87.88 294.91
  L 85.00 293.57
  Q 84.83 293.49 84.90 293.32
  L 95.33 269.48
  Q 95.55 268.98 96.05 269.22
  L 98.78 270.55
  Q 99.39 270.84 99.30 271.52
  L 96.87 288.82
  Q 96.76 289.61 97.22 288.96
  C 98.21 287.53 98.70 285.38 99.35 283.98
  Q 101.91 278.51 104.16 273.13
  A 0.31 0.30 23.3 0 1 104.57 272.97
  L 107.47 274.23
  Q 107.77 274.36 107.64 274.65
  L 97.22 298.36
  Q 96.99 298.89 96.47 298.64
  L 92.81 296.92
  A 0.69 0.68 -73.9 0 1 92.43 296.22
  L 94.26 282.20
  Z"
/>
<path fill="#ffffff" d="
  M 115.8267 298.9592
  A 5.75 5.75 0.0 0 1 108.6737 302.8269
  L 107.4470 302.4612
  A 5.75 5.75 0.0 0 1 103.5794 295.3081
  L 108.0533 280.3008
  A 5.75 5.75 0.0 0 1 115.2063 276.4331
  L 116.4330 276.7988
  A 5.75 5.75 0.0 0 1 120.3006 283.9519
  L 115.8267 298.9592
  Z
  M 116.2097 283.0166
  A 2.13 2.13 0.0 0 0 114.7724 280.3694
  L 114.6573 280.3353
  A 2.13 2.13 0.0 0 0 112.0101 281.7726
  L 107.6703 296.4234
  A 2.13 2.13 0.0 0 0 109.1076 299.0706
  L 109.2227 299.1047
  A 2.13 2.13 0.0 0 0 111.8699 297.6674
  L 116.2097 283.0166
  Z"
/>
<path fill="#ffffff" d="
  M 132.3506 301.9731
  A 5.74 5.74 0.0 0 1 125.7174 306.6523
  L 124.4363 306.4311
  A 5.74 5.74 0.0 0 1 119.7571 299.7978
  L 122.4294 284.3269
  A 5.74 5.74 0.0 0 1 129.0626 279.6477
  L 130.3437 279.8689
  A 5.74 5.74 0.0 0 1 135.0229 286.5022
  L 132.3506 301.9731
  Z
  M 130.8857 285.7451
  A 1.98 1.98 0.0 0 0 129.2836 283.4485
  L 128.8701 283.3749
  A 1.98 1.98 0.0 0 0 126.5736 284.9770
  L 123.8343 300.3549
  A 1.98 1.98 0.0 0 0 125.4364 302.6515
  L 125.8499 302.7251
  A 1.98 1.98 0.0 0 0 128.1464 301.1230
  L 130.8857 285.7451
  Z"
/>
<path fill="#ffffff" d="
  M 151.20 299.18
  L 151.75 281.91
  A 0.12 0.12 0.0 0 1 151.87 281.79
  L 155.24 281.90
  A 0.12 0.12 0.0 0 1 155.36 282.02
  L 154.40 308.62
  A 0.12 0.12 0.0 0 1 154.28 308.73
  L 148.79 308.47
  A 0.12 0.12 0.0 0 1 148.68 308.37
  L 146.30 289.54
  A 0.12 0.12 0.0 0 0 146.06 289.54
  L 142.75 308.15
  A 0.12 0.12 0.0 0 1 142.63 308.25
  L 136.99 308.04
  A 0.12 0.12 0.0 0 1 136.87 307.92
  L 137.88 281.59
  A 0.12 0.12 0.0 0 1 138.00 281.47
  L 141.70 281.57
  A 0.12 0.12 0.0 0 1 141.81 281.69
  L 141.10 298.05
  A 0.12 0.12 0.0 0 0 141.21 298.17
  L 141.44 298.20
  A 0.12 0.12 0.0 0 0 141.57 298.11
  L 144.34 281.78
  A 0.12 0.12 0.0 0 1 144.46 281.68
  L 148.49 281.74
  A 0.12 0.12 0.0 0 1 148.60 281.84
  L 150.96 299.20
  A 0.12 0.12 0.0 0 0 151.20 299.18
  Z"
/>
</svg>
